<svg width="32" height="32" viewBox="0 0 32 32" xmlns="http://www.w3.org/2000/svg">
  <defs>
    <linearGradient id="bladeGradient" x1="0%" y1="0%" x2="100%" y2="100%">
      <stop offset="0%" style="stop-color:#3B82F6;stop-opacity:1" />
      <stop offset="30%" style="stop-color:#6366F1;stop-opacity:1" />
      <stop offset="70%" style="stop-color:#EC4899;stop-opacity:1" />
      <stop offset="100%" style="stop-color:#F97316;stop-opacity:1" />
    </linearGradient>
  </defs>

  <!-- Circular blade shape similar to Syrena logo -->
  <g transform="translate(16,16)">
    <path d="M 0,-14 A 14,14 0 0,1 14,0 A 10,10 0 0,0 0,-10 A 10,10 0 0,0 -10,0 A 14,14 0 0,1 0,-14 Z"
          fill="url(#bladeGradient)"
          opacity="1"/>
    <path d="M 0,14 A 14,14 0 0,1 -14,0 A 10,10 0 0,0 0,10 A 10,10 0 0,0 10,0 A 14,14 0 0,1 0,14 Z"
          fill="url(#bladeGradient)"
          opacity="1"/>
  </g>
</svg>