<svg xmlns="http://www.w3.org/2000/svg" viewBox="0 0 200 200" width="200" height="200">
  <!-- Background Circle -->
  <defs>
    <linearGradient id="bgGradient" x1="0%" y1="0%" x2="100%" y2="100%">
      <stop offset="0%" style="stop-color:#3B82F6;stop-opacity:1" />
      <stop offset="50%" style="stop-color:#6366F1;stop-opacity:1" />
      <stop offset="100%" style="stop-color:#8B5CF6;stop-opacity:1" />
    </linearGradient>
    <linearGradient id="waveGradient" x1="0%" y1="0%" x2="0%" y2="100%">
      <stop offset="0%" style="stop-color:#ffffff;stop-opacity:0.9" />
      <stop offset="100%" style="stop-color:#ffffff;stop-opacity:0.6" />
    </linearGradient>
  </defs>

  <circle cx="100" cy="100" r="90" fill="url(#bgGradient)"/>

  <!-- Mermaid Tail / Wave Design -->
  <g transform="translate(100, 100)">
    <!-- Central wave/tail shape -->
    <path d="M -40 -20 C -20 -35, 20 -35, 40 -20 C 30 -10, 20 0, 0 5 C -20 0, -30 -10, -40 -20 Z"
          fill="url(#waveGradient)" opacity="0.95"/>

    <!-- Lower wave -->
    <path d="M -35 0 C -20 -5, 20 -5, 35 0 C 25 10, 15 15, 0 20 C -15 15, -25 10, -35 0 Z"
          fill="url(#waveGradient)" opacity="0.85"/>

    <!-- Bottom wave/tail fin -->
    <path d="M -30 20 C -15 18, 15 18, 30 20 C 20 30, 10 35, 0 40 C -10 35, -20 30, -30 20 Z"
          fill="url(#waveGradient)" opacity="0.75"/>

    <!-- Location pin integrated with design -->
    <circle cx="0" cy="-25" r="8" fill="#ffffff" opacity="0.95"/>
    <circle cx="0" cy="-25" r="5" fill="url(#bgGradient)"/>

    <!-- Travel path dots -->
    <circle cx="-25" cy="-5" r="3" fill="#ffffff" opacity="0.7"/>
    <circle cx="25" cy="-5" r="3" fill="#ffffff" opacity="0.7"/>
    <circle cx="0" cy="15" r="3" fill="#ffffff" opacity="0.6"/>
  </g>
</svg>